<svg width="30" height="30" viewBox="0 0 30 30" fill="none" xmlns="http://www.w3.org/2000/svg">
<circle cx="15" cy="15" r="14.5" stroke="white"/>
<g clip-path="url(#clip0_1_698)">
<path d="M22.1404 10.4479C21.6425 10.669 21.1075 10.8177 20.5456 10.8859C21.1178 10.5409 21.5599 9.9976 21.7665 9.34893C21.2293 9.66707 20.6344 9.89844 20.0023 10.0224C19.4961 9.48321 18.7752 9.14648 17.9757 9.14648C16.4429 9.14648 15.1993 10.3901 15.1993 11.9229C15.1993 12.1398 15.224 12.3526 15.2716 12.5551C12.9641 12.4394 10.9189 11.3321 9.54928 9.65261C9.30964 10.0637 9.1733 10.5409 9.1733 11.0512C9.1733 12.0138 9.6629 12.8629 10.4087 13.3607C9.95211 13.3463 9.52449 13.2223 9.15058 13.0137C9.15058 13.0261 9.15058 13.0364 9.15058 13.0488C9.15058 14.3936 10.107 15.5154 11.3775 15.7715C11.1441 15.8356 10.9003 15.8686 10.6462 15.8686C10.4665 15.8686 10.293 15.8521 10.1236 15.819C10.4768 16.9201 11.5015 17.7258 12.7162 17.7464C11.768 18.4922 10.5698 18.9343 9.26833 18.9343C9.04315 18.9343 8.82418 18.9219 8.60727 18.8971C9.83436 19.6842 11.2949 20.1428 12.8628 20.1428C17.9695 20.1428 20.7625 15.912 20.7625 12.2452C20.7625 12.1233 20.7604 12.0035 20.7542 11.8837C21.2975 11.4953 21.7685 11.0057 22.1404 10.4479Z" fill="white"/>
</g>
<defs>
<clipPath id="clip0_1_698">
<rect width="13.75" height="13.75" fill="white" transform="translate(8.4668 7.5)"/>
</clipPath>
</defs>
</svg>
